# xmcd
#
# Track frame offsets: 
#        150
#        31475
#        47560
#        61302
#        75720
#        90052
#        103005
#        110092
#        121395
#        173475
#        232605
#        261235
#
# Disc length: 3862 seconds
#
# Revision: 9
# Processed by: cddbd v1.5.2PL0 Copyright (c) Steve Scherf et al.
# Submitted via: ExactAudioCopy v0.95b2
#
DISCID=8a0f140c
DTITLE=Fleetwood Mac - The Pious Bird Of Good Omen - RM and Exchanged and 
DTITLE=Expanded Edition 2004 -
DYEAR=1969
DGENRE=Blues
TTITLE0=Need Your Love So Bad (Version 2, Remake, Take 4)
TTITLE1=Rambling pony
TTITLE2=I believe my time ain't long
TTITLE3=The sun is shining
TTITLE4=Albatross
TTITLE5=Black Magic Woman
TTITLE6=Jigsaw Juzzle Blues
TTITLE7=Like Crying
TTITLE8=Need Your Love So Bad (Version 1, Takes 1 and 2 and 3)
TTITLE9=Need Your Love So Bad (Version 2, Remake, Take 1 and 2)
TTITLE10=Need Your Love So Bad (Version 2, Remake, Take 4)Need Your Lo
TTITLE10=ve So Bad (Version 2, Remake, Take 3)
TTITLE11=Need Your Love So Bad (USA Single Version)
EXTD=YEAR: 1969
EXTT0=Version #2 (remake) (Blue Horizon 57-3139/LP 7-63215) \ntake 4 -
EXTT0=complete master version/rem
EXTT1=(CBS 3051/Blue Horizon LP 7-63215]\n*complete master version/rem
EXTT1=ix
EXTT2=(CBS 3051/Blue Horizon LP 7-63215]\n* master with versionstudio 
EXTT2=talk/remix
EXTT3=(Blue Horizon 57-3138/LP 7-63215)
EXTT4=(Blue Horizon 57-3138/LP 7-63215)
EXTT5=(Blue Horizon 57-3138/LP 7-63215)
EXTT6=(Blue Horizon 57-3138/LP 7-63215)
EXTT7=* previously unissued
EXTT8=* take 1 - previously unissued/false start\n* take 2 - previousl
EXTT8=y unissued/incomplete\n* t
EXTT9=version #2 (remark]\n* take 1 - previously unissued\n* take 2 - 
EXTT9=previously unissued\n
EXTT10=* take 3 - previously unissued
EXTT11=USA version\n* take 1 - previously unissued\n
PLAYORDER=
